<svg xmlns="http://www.w3.org/2000/svg" version="1.1" xmlns:xlink="http://www.w3.org/1999/xlink" xmlns:svgjs="http://svgjs.dev/svgjs" width="2000" height="2186" viewBox="0 0 2000 2186"><g transform="matrix(1,0,0,1,3.754154530073606,-3.0929574468079863)"><svg viewBox="0 0 129 141" data-background-color="#3d3839" preserveAspectRatio="xMidYMid meet" height="2186" width="2000" xmlns="http://www.w3.org/2000/svg" xmlns:xlink="http://www.w3.org/1999/xlink"><g id="tight-bounds" transform="matrix(1,0,0,1,-0.24214296718974992,0.19949999999997203)"><svg viewBox="0 0 129.48428593437947 140.60052000000002" height="140.60052000000002" width="129.48428593437947"><g><svg viewBox="0 0 129.48428593437947 140.60052000000002" height="140.60052000000002" width="129.48428593437947"><g><svg viewBox="0 0 129.48428593437947 140.60052000000002" height="140.60052000000002" width="129.48428593437947"><g><path d="M0 140.601v-140.601h129.484v140.601z" fill="#ff4136" stroke="transparent" stroke-width="0" rx="0%" data-fill-palette-color="tertiary"></path><path d="M3.283 137.317v-134.034h122.918v134.034z" fill="#ffffff" stroke="transparent" stroke-width="0" rx="0%" data-fill-palette-color="quaternary"></path><path d="M9.85 130.751v-120.901h109.784v120.901z" fill="#ff4136" stroke="transparent" stroke-width="0" data-fill-palette-color="tertiary"></path></g><g transform="matrix(1,0,0,1,19.69974,19.69974)" id="textblocktransform"><svg viewBox="0 0 90.08480593437947 101.20104000000002" height="101.20104000000002" width="90.08480593437947" id="textblock"><g><svg viewBox="0 0 90.08480593437947 101.20104000000002" height="101.20104000000002" width="90.08480593437947"><g transform="matrix(1,0,0,1,0,0)"><svg width="90.08480593437947" viewBox="0.75 -34.95 31.2 35.050000000000004" height="101.20104000000002" data-palette-color="#ffffff"><path d="M26 0.1L26 0.1Q21.65 0.1 21.3-1.3L21.3-1.3 19.65-7.75 11.7-7.75 10.25-1.55Q9.95 0 5.45 0L5.45 0Q3.05 0 1.9-0.28 0.75-0.55 0.75-0.7L0.75-0.7 9.6-34.55Q9.6-34.95 16.45-34.95 23.3-34.95 23.3-34.55L23.3-34.55 31.95-0.65Q31.95-0.3 29.65-0.1 27.35 0.1 26 0.1ZM15.65-24.45L12.95-14.1 18.2-14.1 15.95-24.45 15.65-24.45Z" opacity="1" transform="matrix(1,0,0,1,0,0)" fill="#ffffff" class="wordmark-text-0" data-fill-palette-color="quaternary" id="text-0"></path></svg></g></svg></g></svg></g></svg></g><g></g></svg></g><defs></defs></svg><rect width="129.48428593437947" height="140.60052000000002" fill="none" stroke="none" visibility="hidden"></rect></g></svg></g></svg>